<?xml version="1.0" encoding="utf-8"?>
<!-- Generator: Adobe Illustrator 16.0.0, SVG Export Plug-In . SVG Version: 6.00 Build 0)  -->
<!DOCTYPE svg PUBLIC "-//W3C//DTD SVG 1.1//EN" "http://www.w3.org/Graphics/SVG/1.1/DTD/svg11.dtd">
<svg version="1.1" id="Layer_1" xmlns="http://www.w3.org/2000/svg" xmlns:xlink="http://www.w3.org/1999/xlink" x="0px" y="0px"
	 width="130px" height="40px" viewBox="0 0 130 40" enable-background="new 0 0 130 40" xml:space="preserve">
<g>
	<path fill="#363636" d="M126.094,1c1.654,0,3,1.346,3,3v32c0,1.654-1.346,3-3,3h-122c-1.654,0-3-1.346-3-3V4c0-1.654,1.346-3,3-3
		H126.094 M126.094,0h-122c-2.209,0-4,1.791-4,4v32c0,2.209,1.791,4,4,4h122c2.209,0,4-1.791,4-4V4
		C130.094,1.791,128.303,0,126.094,0L126.094,0z"/>
</g>
<g>
	<g>
		<path fill="#363636" d="M99,31.971h1v-11h-1V31.971z M104.69,23.92c-3.031,0-3.117,2.22-3.117,2.22l0.961-0.003
			c0,0-0.047-1.516,2.133-1.516c2.181,0,2.333,1.35,2.333,1.35v1h-2c-2.544,0-3.755,1.424-3.755,2.791s0.762,2.337,2.625,2.337
			s3.13-1.128,3.13-1.128c0,0.537,0,1,0,1h1c0,0,0-0.381,0-1v-5C108,25.971,107.723,23.92,104.69,23.92z M107,28.971
			c0,1.577-2.087,2.368-3.048,2.368s-1.758-0.455-1.758-1.507s1.282-1.861,2.806-1.861h2V28.971z M115,23.971l-2.448,6.788
			L110,23.971h-1l3.021,8.003l-0.563,1.34c0,0-0.774,1.028-1.22,1.028s-0.672-0.125-0.672-0.125l-0.25,0.701
			c0,0,0.453,0.265,0.906,0.265c1.008,0,2.434-0.395,2.777-1.212c0.344-0.818,3-10,3-10H115z M94.339,23.92
			c-1.664,0-2.308,1.013-2.339,1.051v-1h-1v11h1v-4c0.03,0.051,0.429,1.128,2.362,1.128c1.97,0,3.493-1.262,3.493-4.152
			C97.855,25.057,96.027,23.92,94.339,23.92z M94.198,31.374c-1.615,0-2.167-2.353-2.198-2.403v-2
			c0.031-0.042,0.742-2.303,2.315-2.303c1.431,0,2.626,1.449,2.626,3.341C96.941,29.901,95.839,31.374,94.198,31.374z
			 M44.775,28.742c0.654-0.165,2.391-0.146,2.391-0.146v2.413c0,0-0.769,0.435-1.936,0.435c-3.375,0-5.563-2.952-5.563-5.646
			c0-3.289,2.358-4.681,4.407-4.681c2.05,0,3.205,1.512,3.205,1.512l-0.375,0.611l0.603-0.16l1.301-1.224
			c0,0-1.301-1.318-4.554-1.318c-3.961,0-6.263,3.032-6.263,5.903c0,2.51,1.74,5.679,6.067,5.679c2.236,0,4.749-0.82,4.749-0.82
			s0-0.989,0-1.946S50,27.971,50,27.971h-4L44.775,28.742z M54.315,23.951c-2.321,0-4.214,1.68-4.214,4.131
			c0,1.766,1.428,3.892,3.956,3.892s4.3-1.68,4.3-4.046C58.357,25.563,56.638,23.951,54.315,23.951z M54.487,31.459
			c-1.916,0-2.82-2.948-2.82-4.439s1.015-2.555,2.185-2.555c1.668,0,2.82,1.962,2.82,4.252
			C56.672,29.505,56.403,31.459,54.487,31.459z M63.35,23.955c-2.32,0-4.211,1.679-4.211,4.129c0,1.765,1.427,3.89,3.953,3.89
			c2.527,0,4.298-1.679,4.298-4.044C67.39,25.565,65.671,23.955,63.35,23.955z M63.521,31.46c-1.915,0-2.819-2.947-2.819-4.438
			c0-1.49,1.015-2.553,2.184-2.553c1.668,0,2.819,1.961,2.819,4.249C65.705,29.506,65.438,31.46,63.521,31.46z M75.748,24.219
			c0,0-1.914,0-3.929,0c-2.017,0-3.537,1.55-3.537,3.219c0,1.175,0.999,2.58,2.973,2.58c0.205,0,0.342-0.043,0.342-0.043
			s-0.119,0.26-0.119,0.604c0,0.563,0.486,1.064,0.486,1.064s-4.553,0.005-4.553,2.912c0,1.758,1.99,2.418,3.622,2.418
			c1.631,0,4.425-0.877,4.425-3.116c0-1.068-0.572-1.882-1.401-2.452s-0.991-0.843-0.991-1.09s0.009-0.447,0.599-1.005
			c0.589-0.558,1.127-1.141,1.127-2.196c0-1.567-1.059-2.266-1.059-2.266l1.008-0.033L75.748,24.219z M74.266,34.449
			c0,1.647-1.909,1.801-2.46,1.801s-2.896-0.218-2.896-2.069s2.703-2.024,3.018-2.024c0.313,0,0.583,0.045,0.583,0.045
			C73.344,32.936,74.266,33.3,74.266,34.449z M71.896,29.507c-1.191,0-2.14-1.775-2.14-2.849c0-1.072,0.538-1.839,1.486-1.839
			s2.075,1.086,2.075,3.065C73.317,28.574,73.088,29.507,71.896,29.507z M78,29.971c0,0-0.015-6.574,0-8s0.425-1.694,1-2
			l-2.329-0.013L76,20.971h1v10c-0.006,0.382-1,1-1,1h3l0.711-0.584c0,0-0.179-0.076-0.567-0.076C78.717,31.311,78,30.515,78,29.971
			z M81.224,27.67l1.308-0.067l3.919-1.566c0,0-0.414-2.116-2.936-2.116c-2.521,0-3.833,1.979-3.833,3.924
			c0,1.944,1.157,4.13,4.04,4.13c2.021,0,2.936-1.497,2.936-1.497s-0.967,0.568-2.037,0.568
			C83.192,31.045,81.568,29.707,81.224,27.67z M81.149,26.88c0-1.67,1.168-2.341,1.899-2.341c1.468,0,1.735,1.316,1.606,1.549
			c-0.125,0.224-3.211,1.484-3.433,1.574C81.181,27.41,81.149,27.152,81.149,26.88z"/>
	</g>
</g>
<g>
	<g>
		<path fill="#363636" d="M41.301,10.968h1.369v2.009c-0.2,0.101-0.59,0.18-1.159,0.18c-1.569,0-2.599-1.009-2.599-2.718
			c0-1.689,1.069-2.709,2.708-2.709c0.68,0,1.13,0.13,1.489,0.29l0.21-0.71C43.029,7.17,42.42,7,41.641,7
			c-2.259,0-3.639,1.47-3.648,3.479c0,1.049,0.36,1.948,0.939,2.508c0.66,0.63,1.499,0.89,2.519,0.89c0.91,0,1.68-0.229,2.069-0.369
			v-3.238h-2.219V10.968z M47.061,8.859c-1.409,0-2.269,1.149-2.269,2.608s0.89,2.438,2.379,2.438c0.77,0,1.299-0.16,1.609-0.3
			l-0.15-0.63c-0.33,0.14-0.709,0.25-1.339,0.25c-0.88,0-1.64-0.489-1.659-1.679h3.398c0.01-0.09,0.029-0.23,0.029-0.41
			C49.06,10.248,48.64,8.859,47.061,8.859z M45.642,10.918c0.07-0.609,0.46-1.43,1.35-1.43c0.989,0,1.229,0.87,1.219,1.43H45.642z
			 M51.052,7.58l-0.86,0.229v1.159h-0.749v0.67h0.749v2.639c0,0.569,0.091,0.999,0.34,1.259c0.21,0.24,0.54,0.37,0.95,0.37
			c0.34,0,0.609-0.05,0.779-0.12l-0.04-0.659c-0.11,0.029-0.28,0.06-0.51,0.06c-0.489,0-0.659-0.34-0.659-0.939V9.639h1.259v-0.67
			h-1.259V7.58z M55.021,13.807h0.88V8.969h-0.88V13.807z M55.462,7.06c-0.32,0-0.55,0.24-0.55,0.55c0,0.3,0.22,0.54,0.529,0.54
			c0.35,0,0.569-0.24,0.56-0.54C56.001,7.3,55.791,7.06,55.462,7.06z M59.021,7.58l-0.86,0.229v1.159h-0.749v0.67h0.749v2.639
			c0,0.569,0.091,0.999,0.34,1.259c0.21,0.24,0.54,0.37,0.95,0.37c0.34,0,0.609-0.05,0.779-0.12l-0.04-0.659
			c-0.109,0.029-0.28,0.06-0.51,0.06c-0.489,0-0.659-0.34-0.659-0.939V9.639h1.259v-0.67h-1.259V7.58z M65.44,8.859
			c-1.339,0-2.398,0.949-2.398,2.568c0,1.529,1.009,2.488,2.318,2.488c1.17,0,2.409-0.779,2.409-2.568
			C67.77,9.868,66.83,8.859,65.44,8.859z M65.4,13.257c-0.859,0-1.469-0.8-1.469-1.859c0-0.919,0.449-1.879,1.489-1.879
			c1.039,0,1.449,1.04,1.449,1.859C66.87,12.467,66.24,13.257,65.4,13.257z M71.311,8.859c-0.8,0-1.359,0.449-1.6,0.909h-0.02
			l-0.05-0.8h-0.78c0.03,0.4,0.04,0.81,0.04,1.31v3.528h0.88v-2.909c0-0.149,0.02-0.3,0.06-0.409c0.15-0.49,0.6-0.899,1.18-0.899
			c0.829,0,1.119,0.649,1.119,1.429v2.789h0.88v-2.889C73.02,9.259,71.979,8.859,71.311,8.859z"/>
	</g>
</g>
<g>
	<linearGradient id="SVGID_1_" gradientUnits="userSpaceOnUse" x1="28.4321" y1="22.6338" x2="25.3278" y2="16.5412">
		<stop  offset="0" style="stop-color:#FCD08F"/>
		<stop  offset="1" style="stop-color:#F79673"/>
	</linearGradient>
	<path fill="url(#SVGID_1_)" d="M25.961,23.893c2.908-1.592,5.128-2.808,5.331-2.918c0.603-0.33,1.233-1.171,0-1.844
		c-0.397-0.217-2.557-1.395-5.334-2.91l-3.818,3.848L25.961,23.893z"/>
	<linearGradient id="SVGID_2_" gradientUnits="userSpaceOnUse" x1="23.9194" y1="21.7266" x2="12.1009" y2="34.4004">
		<stop  offset="0" style="stop-color:#E74047"/>
		<stop  offset="1" style="stop-color:#7F50A0"/>
	</linearGradient>
	<path fill="url(#SVGID_2_)" d="M22.14,20.068L9.927,32.374c0.276,0.035,0.608-0.038,0.989-0.247
		c0.79-0.432,9.273-5.076,15.045-8.234L22.14,20.068z"/>
	<linearGradient id="SVGID_3_" gradientUnits="userSpaceOnUse" x1="23.9814" y1="18.29" x2="11.9762" y2="5.8582">
		<stop  offset="0" style="stop-color:#E6FFAB"/>
		<stop  offset="1" style="stop-color:#47BEBC"/>
	</linearGradient>
	<path fill="url(#SVGID_3_)" d="M22.14,20.068l3.818-3.848c0,0-14.192-7.743-15.042-8.206c-0.327-0.178-0.683-0.24-0.998-0.17
		L22.14,20.068z"/>
	<linearGradient id="SVGID_4_" gradientUnits="userSpaceOnUse" x1="15.5698" y1="32.374" x2="15.5698" y2="7.8447">
		<stop  offset="0" style="stop-color:#84E9DB"/>
		<stop  offset="1" style="stop-color:#197491"/>
	</linearGradient>
	<path fill="url(#SVGID_4_)" d="M22.14,20.068L9.919,7.844C9.414,7.957,9,8.393,9,9.272c0,1.426,0,20.438,0,21.635
		c0,0.827,0.326,1.408,0.927,1.467L22.14,20.068z"/>
</g>
</svg>
